<svg width="59" height="58" viewBox="0 0 59 58" fill="none" xmlns="http://www.w3.org/2000/svg">
<path d="M36.5215 30.3518C36.4748 33.463 36.431 36.5435 36.3814 39.6238C36.3452 41.8752 36.3146 44.1267 36.2541 46.3774C36.2305 47.2576 36.2218 48.1373 36.2207 49.0173C36.2204 49.2839 36.1273 49.4146 35.8439 49.4095C33.0431 49.3583 30.3227 48.8713 27.7375 47.7866C25.4295 46.8182 23.5213 45.2765 21.9211 43.3695C20.1814 41.2962 18.9893 38.9188 18.179 36.3433C17.7058 34.8392 17.3134 33.315 17.0957 31.753C16.9547 30.7411 16.8754 29.7207 16.7652 28.7045C16.6373 27.5258 16.5059 26.3475 16.3759 25.1691C16.2593 24.1127 16.1452 23.0561 16.0253 22.0001C15.8742 20.67 15.7194 19.3403 15.5643 18.0107C15.4317 16.8734 15.314 15.7341 15.1581 14.6C14.9408 13.0205 14.9369 11.4171 14.6149 9.84979C14.5057 9.31802 14.3581 8.79743 14.1941 8.28057C14.1631 8.18288 14.0764 8.08208 14.1739 7.95355C14.3258 8.03968 14.401 8.19308 14.4839 8.3234C15.6138 10.1001 17.2411 11.2392 19.1333 12.0944C21.7882 13.2943 24.5844 13.9674 27.4334 14.4597C30.2327 14.9434 33.0534 15.1898 35.8977 15.1029C35.9284 15.102 35.9591 15.1023 35.9898 15.1023C36.7807 15.1009 36.7803 15.1161 36.73 15.8916C36.6962 16.4118 36.7152 16.9353 36.7088 17.4573C36.6816 19.6782 36.6749 21.8997 36.6187 24.1199C36.5808 25.6144 36.6061 27.1089 36.5674 28.6029C36.5526 29.1756 36.5372 29.7484 36.5215 30.3518ZM25.3372 36.6897C24.5057 35.2749 24.0057 33.7625 24.0882 32.1067C24.1299 31.2714 24.238 30.4369 24.3621 29.6089C24.5015 28.6784 24.4535 27.8083 23.9113 26.9901C23.4575 26.3053 23.1582 25.5415 22.9555 24.7416C22.8929 24.4945 22.7956 24.2564 22.6581 24.0368C22.2878 23.4457 22.0014 22.8124 21.7043 22.1825C21.1696 21.0486 21.246 19.9466 21.7828 18.8448C22.287 17.8101 23.3362 17.3891 24.4037 17.8351C25.2908 18.2057 26.1585 18.6227 27.0395 19.0082C27.5777 19.2437 28.0968 19.5144 28.531 19.9092C28.7734 20.1294 28.9361 20.0884 29.1807 19.9176C30.3103 19.1289 31.5187 18.4888 32.8354 18.0656C33.8358 17.744 34.8608 17.5689 35.9116 17.5608C36.1481 17.559 36.256 17.495 36.2736 17.235C36.2986 16.8665 36.2902 16.4984 36.3096 16.1308C36.3204 15.9257 36.2335 15.8476 36.0377 15.8726C35.5777 15.9313 35.1177 15.871 34.6577 15.8722C32.6763 15.8775 30.7201 15.6064 28.7681 15.3088C27.1405 15.0607 25.5208 14.7645 23.9185 14.3822C22.2248 13.978 20.5653 13.4631 18.9445 12.8245C18.0574 12.4751 17.1776 12.1142 16.4091 11.5314C16.2504 11.4111 16.1122 11.257 15.8813 11.1622C15.9042 11.4352 15.9179 11.6754 15.9455 11.914C16.1661 13.8229 16.3936 15.731 16.6107 17.6403C16.8254 19.5289 17.0038 21.4221 17.247 23.3071C17.5051 25.307 17.594 27.3199 17.7811 29.3249C17.8703 30.281 17.8631 31.249 18.0653 32.1914C18.5697 34.5417 19.1595 36.8645 20.1525 39.0709C21.2504 41.5103 22.7322 43.6443 24.876 45.2829C25.473 45.7392 25.5756 45.7048 25.7427 44.9566C25.8726 44.3755 25.8653 43.7785 25.9345 43.19C26.1207 41.6055 26.2787 40.0187 26.2941 38.4209C26.296 38.2265 26.2461 38.0657 26.1375 37.9067C25.8721 37.5182 25.6187 37.1216 25.3372 36.6897ZM34.1848 43.0476C34.5541 43.0092 34.9209 43.0374 35.285 43.0995C35.8452 43.1951 35.8713 43.175 35.8745 42.5926C35.8745 42.5823 35.8748 42.5721 35.8748 42.5618C35.8753 42.1557 35.8429 42.1223 35.4562 42.2124C34.9555 42.3291 34.447 42.3839 33.9361 42.4027C33.7194 42.4107 33.5692 42.4784 33.4439 42.6506C33.2272 42.9484 32.9434 43.1626 32.5858 43.2654C32.482 43.2952 32.3615 43.3587 32.2655 43.2665C32.1602 43.1654 32.2509 43.0578 32.2901 42.9566C32.3307 42.8517 32.3665 42.7439 32.4181 42.6444C32.535 42.4193 32.5822 42.2292 32.272 42.1137C32.1664 42.0743 32.0923 41.9556 32.1456 41.8334C32.21 41.6861 32.3354 41.7583 32.4393 41.788C32.7648 41.8809 33.095 41.9525 33.4314 41.9858C34.0239 42.0444 34.6177 42.0639 35.2066 41.9522C35.37 41.9211 35.5796 41.9079 35.5609 41.6569C35.5198 41.1064 35.5427 40.5517 35.4503 40.0046C35.4323 39.8982 35.4064 39.7883 35.282 39.7788C34.8207 39.7436 34.5636 39.4129 34.3014 39.1009C33.9587 38.693 33.6115 38.2909 33.2325 37.9155C32.7493 37.437 32.6664 36.8549 32.9603 36.2305C33.0468 36.0467 33.1118 35.8506 33.1661 35.6545C33.1988 35.5362 33.2041 35.3807 33.0343 35.3647C32.7887 35.3414 32.7062 35.168 32.6468 34.9834C32.3253 33.9842 32.1889 32.9964 32.7431 32.0145C32.9715 31.6099 33.2244 31.1962 33.236 30.7056C33.2433 30.3975 33.3852 30.1894 33.6402 30.0301C34.2653 29.6398 34.8868 29.2435 35.5056 28.8432C35.9702 28.5426 35.9674 28.5382 35.8532 28.0097C35.8467 27.9797 35.8367 27.9505 35.8287 27.9209C35.3372 26.0938 34.9947 24.2289 34.4338 22.4194C34.3723 22.221 34.3959 22.0446 34.537 21.8755C34.9174 21.42 35.2631 20.9332 35.6667 20.5001C36.1045 20.0303 36.2893 19.5224 36.2582 18.8703C36.2123 17.9051 36.2551 17.9247 35.278 18.0441C34.1307 18.1842 33.0345 18.4956 31.9681 18.9273C31.063 19.2938 30.213 19.7615 29.412 20.3202C29.2335 20.4447 29.1884 20.5422 29.3509 20.7307C29.6843 21.1173 29.6732 21.1269 30.1645 20.9591C30.1936 20.9492 30.2225 20.9387 30.2517 20.9292C30.3678 20.8915 30.4875 20.8816 30.5385 21.016C30.5983 21.1737 30.4576 21.2064 30.3556 21.2405C30.0314 21.349 29.7368 21.5085 29.4701 21.7215C28.6325 22.3906 27.9064 23.1642 27.299 24.0475C26.8921 24.6391 26.5375 25.2605 26.2521 25.9204C26.2129 26.011 26.1812 26.1422 26.0491 26.1048C25.9181 26.0676 25.9532 25.9429 25.9747 25.8435C26.0114 25.6736 26.0585 25.5058 26.0922 25.3354C26.154 25.0236 26.3686 24.776 26.4892 24.4398C26.1835 24.5057 26.0451 24.6929 25.9651 24.9146C25.924 25.0287 25.9469 25.1614 25.7822 25.1892C25.7061 25.202 25.6892 25.2689 25.6965 25.3313C25.7232 25.56 25.5988 25.6554 25.407 25.6578C25.3563 25.8285 25.4596 26.0192 25.1865 26.1536C25.0131 25.2545 25.1015 24.3672 24.9624 23.5062C24.9366 24.4583 25.0638 25.4051 25.0284 26.3563C25.0242 26.4709 25.0775 26.651 24.9099 26.6597C24.6487 26.6732 24.7008 26.8223 24.6883 26.9911C24.6519 27.4828 24.8988 27.9279 24.9006 28.4096C24.9043 29.4036 24.7469 30.3863 24.6841 31.3755C24.5813 32.9946 24.6407 34.5688 25.4927 36.0454C26.1717 37.2221 26.8984 38.3256 28.0364 39.1071C28.7191 39.576 29.4515 39.9724 30.0863 40.5117C30.1423 40.5593 30.2181 40.6197 30.3344 40.5281C30.013 39.8434 29.7112 39.1431 29.5351 38.3956C29.3618 37.6607 29.1077 36.9376 29.229 36.1376C29.4358 36.2252 29.4318 36.3706 29.44 36.4969C29.4941 37.3299 29.6735 38.1356 29.9597 38.9178C30.2585 39.7343 30.5321 40.5638 31.047 41.2802C31.1716 41.4535 31.2932 41.6994 31.4652 41.7522C31.7427 41.8373 31.7613 42.0134 31.8019 42.2233C31.8793 42.6243 31.9179 43.0403 32.0539 43.4211C32.568 44.8603 34.0139 45.5911 35.4917 45.1965C35.7112 45.1379 35.8254 45.0163 35.8253 44.7862C35.8252 44.4586 35.823 44.1307 35.8352 43.8034C35.8451 43.537 35.7254 43.4207 35.4654 43.3788C34.8942 43.2867 34.3213 43.3254 33.7487 43.3179C33.645 43.3165 33.5216 43.3707 33.4272 43.2214C33.6188 42.9877 33.8905 43.0772 34.1848 43.0476ZM35.7598 48.1939C35.7764 47.4783 35.7972 46.7628 35.8081 46.0472C35.8157 45.5392 35.7759 45.4927 35.2883 45.5943C33.3333 46.0016 31.6679 44.5715 31.5062 42.698C31.4848 42.4501 31.3808 42.2504 31.204 42.0801C30.6585 41.5544 30.0945 41.05 29.4946 40.5867C29.4155 40.5255 29.3329 40.4357 29.2233 40.4891C29.1108 40.5439 29.1354 40.6644 29.1426 40.7641C29.1737 41.1946 29.2821 41.6119 29.4024 42.0224C29.816 43.4338 29.3114 44.7218 28.1399 45.3805C27.783 45.5812 27.483 45.8659 27.1841 46.1462C26.8365 46.4721 26.8532 46.5875 27.2907 46.7981C28.2498 47.2599 29.2356 47.6508 30.2533 47.9678C31.8751 48.4729 33.5258 48.7787 35.2288 48.7721C35.756 48.7701 35.756 48.77 35.7598 48.1939ZM33.6452 34.9322C33.6519 35.5554 33.539 36.1476 33.2349 36.7023C33.1443 36.8675 33.2085 37.0354 33.4172 37.0779C34.3021 37.2578 34.6086 37.9467 34.6178 38.6659C34.6235 39.1171 34.9168 39.4047 35.3489 39.3928C35.5211 39.3881 35.6901 39.3975 35.8477 39.4287C35.9502 39.2943 35.9304 39.1579 35.9324 39.0267C35.961 37.1238 35.9889 35.2208 36.0165 33.3179C36.0176 33.2463 36.0218 33.1737 36.0119 33.1033C35.9803 32.8789 35.877 32.8319 35.7089 32.9862C35.0236 33.6154 34.346 34.253 33.6452 34.9322ZM24.1088 24.236C24.1388 24.9656 24.1688 25.6951 24.1987 26.4247C24.4007 26.1732 24.3171 23.3811 24.1087 23.1632C24.1087 23.5006 24.1087 23.8379 24.1088 24.236ZM24.5291 23.3815C24.5356 24.2711 24.5967 25.1572 24.676 26.0423C24.6999 25.5017 24.701 24.9623 24.6994 24.423C24.6985 24.1059 24.6979 23.7887 24.6867 23.472C24.6841 23.3988 24.7268 23.2289 24.5291 23.3815ZM23.7639 24.9845C23.7786 25.0888 23.7933 25.1932 23.8081 25.2975C23.8209 24.5417 23.8694 23.7865 23.8288 23.0347C23.8038 23.036 23.7787 23.0373 23.7537 23.0386C23.7537 23.67 23.7537 24.3014 23.7639 24.9845ZM23.4091 24.1239C23.4846 23.6769 23.4595 23.2332 23.3757 22.7911C23.2582 23.2387 23.341 23.6833 23.4091 24.1239ZM22.8938 23.0889C22.9459 23.2527 22.9018 23.4421 23.0483 23.6744C23.0258 23.1892 23.0971 22.7841 22.9896 22.3982C22.9571 22.4013 22.9246 22.4044 22.8921 22.4075C22.8921 22.6186 22.8921 22.8298 22.8938 23.0889ZM25.2442 23.6649C25.2478 24.1098 25.2713 24.553 25.3544 24.9912C25.3657 24.594 25.3696 24.1974 25.3617 23.8011C25.3604 23.7383 25.3993 23.6143 25.2442 23.6649ZM33.0222 42.5448C33.0099 42.4419 32.9469 42.3905 32.8558 42.4363C32.7052 42.5121 32.6737 42.6553 32.663 42.8319C32.8408 42.7969 32.9437 42.7127 33.0222 42.5448ZM25.5829 24.0746C25.5964 24.2616 25.5662 24.4538 25.6521 24.6319C25.6521 24.3593 25.6521 24.0867 25.6521 23.8141C25.6349 23.8145 25.6176 23.8149 25.6004 23.8154C25.5948 23.8851 25.5893 23.9548 25.5829 24.0746ZM22.5096 22.1384C22.5096 22.3572 22.5096 22.576 22.5096 22.7948C22.5284 22.7923 22.5472 22.7897 22.5661 22.7872C22.5661 22.526 22.5661 22.2648 22.5661 22.0036C22.5509 22.0054 22.5357 22.0072 22.5205 22.009C22.5169 22.0386 22.5133 22.0682 22.5096 22.1384ZM21.9309 20.8145C21.9203 20.7455 21.9565 20.6599 21.8478 20.5962C21.835 20.7952 21.8193 20.9686 21.9305 21.1316C21.9305 21.0411 21.9305 20.9507 21.9309 20.8145Z" fill="white"/>
<path d="M38.3907 46.5896C38.5797 46.5625 38.7423 46.5665 38.9044 46.5973C39.3652 46.6848 39.5369 46.8848 39.5384 47.3474C39.5402 47.8787 39.532 48.41 39.5386 48.9412C39.542 49.2155 39.4041 49.3418 39.1483 49.338C38.9015 49.3344 38.782 49.1863 38.7777 48.9428C38.7773 48.9224 38.7808 48.9014 38.7773 48.8816C38.7521 48.7391 38.8677 48.4995 38.604 48.5077C38.3647 48.5151 38.4382 48.7467 38.4268 48.8966C38.4044 49.1904 38.2784 49.3361 38.0294 49.3342C37.7866 49.3324 37.6615 49.1844 37.6597 48.8759C37.6569 48.3957 37.6588 47.9155 37.6651 47.4354C37.672 46.9109 37.8422 46.7106 38.3907 46.5896ZM38.8178 47.5732C38.818 47.5325 38.8195 47.4919 38.8182 47.4513C38.8138 47.3149 38.8045 47.1584 38.6293 47.1582C38.4544 47.1581 38.4485 47.3189 38.4359 47.4519C38.4321 47.4922 38.4305 47.5333 38.4333 47.5737C38.4429 47.7106 38.4063 47.8865 38.6125 47.9013C38.8035 47.9151 38.7938 47.7499 38.8178 47.5732Z" fill="white"/>
<path d="M39.341 35.3033C39.5743 35.4453 39.6582 35.6478 39.6609 35.884C39.666 36.3335 39.6714 36.7834 39.6577 37.2325C39.6446 37.6576 39.4549 37.8562 39.0327 37.9338C38.8303 37.971 38.6299 37.9867 38.4244 37.9439C37.9572 37.8467 37.7832 37.6451 37.78 37.1629C37.7772 36.744 37.7755 36.3249 37.7871 35.9062C37.7982 35.5061 38.0247 35.2471 38.4158 35.2002C38.72 35.1637 39.0291 35.1527 39.341 35.3033ZM38.8928 36.9401C38.8937 36.6538 38.897 36.3675 38.8945 36.0813C38.8935 35.9605 38.9075 35.8066 38.7306 35.8085C38.5712 35.8102 38.5468 35.9517 38.5445 36.078C38.5387 36.405 38.5384 36.7323 38.5404 37.0594C38.5412 37.192 38.5363 37.3692 38.7022 37.3782C38.9056 37.3892 38.8728 37.1932 38.8904 37.0575C38.893 37.0373 38.8917 37.0166 38.8928 36.9401Z" fill="white"/>
<path d="M37.8133 39.3689C37.8454 39.2054 37.8979 39.0764 38.0482 39.0474C38.4432 38.9711 38.845 38.9477 39.2247 39.0979C39.552 39.2274 39.7037 39.6197 39.5959 40.0716C39.5333 40.3342 39.4935 40.5727 39.5843 40.8403C39.6372 40.9966 39.5985 41.1842 39.5991 41.3578C39.5999 41.6211 39.441 41.7274 39.2056 41.7172C38.9771 41.7073 38.8631 41.5707 38.8569 41.3353C38.8526 41.171 38.981 40.9007 38.7038 40.8937C38.4565 40.8874 38.5475 41.1583 38.5396 41.3128C38.5267 41.5633 38.4104 41.703 38.1669 41.7041C37.9078 41.7052 37.7832 41.5637 37.7887 41.2944C37.8015 40.6614 37.8024 40.0281 37.8133 39.3689ZM38.5689 40.0957C38.657 40.2033 38.7497 40.1773 38.8195 40.0852C38.9118 39.9637 38.9073 39.819 38.8524 39.6843C38.8247 39.6162 38.7511 39.5827 38.6744 39.6177C38.552 39.6735 38.5482 39.7878 38.5485 39.9006C38.5486 39.9508 38.5533 40.0009 38.5689 40.0957Z" fill="white"/>
<path d="M38.9491 28.2682C38.9631 27.9953 38.8641 27.7065 39.2225 27.6087C39.4876 27.5364 39.7093 27.6706 39.7129 27.9429C39.7206 28.5258 39.7184 29.1091 39.7037 29.6919C39.6963 29.9875 39.5294 30.1848 39.2465 30.2804C38.9238 30.3893 38.5988 30.3751 38.281 30.2751C37.9822 30.1809 37.8165 29.9348 37.819 29.6215C37.8232 29.0898 37.8313 28.558 37.8398 28.0263C37.8448 27.7157 37.9588 27.5836 38.2178 27.5811C38.468 27.5788 38.6005 27.7239 38.6024 28.0251C38.6051 28.4343 38.5964 28.8435 38.5939 29.2526C38.5933 29.3548 38.5929 29.4574 38.601 29.5592C38.6095 29.6656 38.637 29.7735 38.7716 29.7714C38.9036 29.7694 38.9385 29.6637 38.9401 29.5562C38.9465 29.1369 38.9466 28.7174 38.9491 28.2682Z" fill="white"/>
<path d="M39.8309 15.624C39.8362 15.8766 39.8201 16.0967 39.7625 16.3187C39.7029 16.5487 39.8981 16.7563 39.8533 17.0008C39.8224 17.1691 39.8435 17.3474 39.8458 17.5211C39.8491 17.762 39.7247 17.8836 39.4923 17.8898C39.2524 17.8962 39.0986 17.7852 39.0875 17.532C39.0785 17.3279 39.0855 17.1231 39.0817 16.9188C39.0795 16.8002 39.0579 16.6814 38.9076 16.6777C38.7435 16.6738 38.748 16.8056 38.745 16.9182C38.7396 17.1226 38.7374 17.3271 38.7375 17.5315C38.7376 17.7822 38.5872 17.8754 38.3649 17.8816C38.1489 17.8876 37.9932 17.7783 37.9932 17.561C37.9932 16.8562 38.0076 16.1512 38.0318 15.4468C38.0392 15.2326 38.2052 15.1624 38.4009 15.1653C38.6013 15.1684 38.738 15.2643 38.7629 15.4673C38.7814 15.6182 38.769 15.773 38.7704 15.9261C38.7713 16.0154 38.7435 16.1308 38.8856 16.1273C38.9893 16.1248 39.0508 16.0468 39.0614 15.9456C39.0721 15.8444 39.0747 15.7412 39.0695 15.6394C39.0563 15.3813 39.1298 15.1833 39.4244 15.1734C39.7035 15.164 39.8319 15.3243 39.8309 15.624Z" fill="white"/>
<path d="M39.5432 19.8237C39.3044 19.865 39.1344 19.8169 39.0624 19.5826C39.0368 19.499 38.9848 19.4291 38.8858 19.4525C38.843 19.4626 38.7945 19.5051 38.7748 19.5457C38.7297 19.6389 38.7952 19.7052 38.8636 19.7497C39.0516 19.872 39.2505 19.9777 39.4351 20.1046C39.7961 20.3528 39.913 20.723 39.7809 21.1567C39.6801 21.4878 39.3975 21.681 38.976 21.703C38.7604 21.7142 38.5465 21.7067 38.3409 21.628C37.9569 21.481 37.7954 21.1485 37.9268 20.7618C38.0015 20.5419 38.1537 20.4245 38.3927 20.449C38.6225 20.4725 38.7665 20.5647 38.6733 20.8306C38.6353 20.9389 38.6039 21.0509 38.7134 21.1398C38.7843 21.1974 38.8675 21.2046 38.9416 21.1536C39.0551 21.0755 39.0749 20.9545 39.0658 20.8264C39.0529 20.6451 38.9429 20.5281 38.7997 20.4371C38.6187 20.3219 38.4267 20.2223 38.2541 20.096C38.0515 19.9478 37.9458 19.7417 37.9906 19.4822C38.0358 19.2206 38.2046 19.0888 38.4524 19.0077C38.7918 18.8966 39.118 18.9027 39.4387 19.0471C39.7918 19.2062 39.8507 19.5855 39.5432 19.8237Z" fill="white"/>
<path d="M39.5199 24.2986C39.3742 24.3181 39.2525 24.331 39.1306 24.3371C38.9922 24.344 38.8565 24.3457 38.8506 24.5382C38.8448 24.7239 38.9627 24.7512 39.1105 24.761C39.2215 24.7683 39.3351 24.7844 39.4404 24.8186C39.5407 24.8513 39.6215 24.9279 39.6215 25.0433C39.6215 25.1608 39.5349 25.2283 39.4352 25.2632C39.35 25.293 39.2553 25.3195 39.1672 25.3132C38.8883 25.2932 38.8149 25.4506 38.8044 25.6879C38.7928 25.9477 38.9472 25.9874 39.1582 25.9909C39.3802 25.9945 39.6848 25.982 39.67 26.2822C39.6557 26.5728 39.3493 26.5476 39.1288 26.5425C37.8382 26.5124 38.1022 26.4658 38.084 25.5005C38.076 25.081 38.0889 24.6612 38.0875 24.2415C38.0867 23.982 38.2087 23.8484 38.4671 23.8138C38.7954 23.7697 39.1197 23.8325 39.4461 23.8325C39.5626 23.8325 39.6636 23.8993 39.6964 24.0247C39.7316 24.1589 39.6563 24.2364 39.5199 24.2986Z" fill="white"/>
<path d="M38.8033 33.2843C38.7983 33.4532 38.7922 33.5964 38.7945 33.7395C38.7989 34.0121 38.6496 34.136 38.3956 34.1344C38.1487 34.1328 38.025 33.9967 38.0273 33.7446C38.0331 33.1207 38.0358 32.4969 38.0381 31.873C38.0392 31.5727 38.1919 31.4134 38.4872 31.4065C38.7731 31.3997 39.0602 31.4004 39.3453 31.4192C39.5141 31.4303 39.6866 31.4928 39.6646 31.711C39.6457 31.8975 39.4922 31.94 39.3281 31.9585C39.1493 31.9787 38.8806 31.8875 38.8625 32.1702C38.8444 32.452 39.1183 32.3973 39.2956 32.4396C39.442 32.4745 39.5857 32.5283 39.5699 32.7116C39.5549 32.8868 39.4166 32.9441 39.2615 32.948C39.0393 32.9534 38.8516 32.9989 38.8033 33.2843Z" fill="white"/>
<path d="M38.2703 43.3277C38.2727 43.2272 38.2702 43.1554 38.2781 43.0847C38.3051 42.8438 38.4633 42.7539 38.6828 42.7622C38.8969 42.7704 39.0302 42.8884 39.0309 43.1091C39.0333 43.8127 39.0458 44.5167 38.9906 45.2191C38.9726 45.4471 38.8088 45.499 38.6226 45.4963C38.3918 45.4929 38.2659 45.3732 38.267 45.1318C38.2697 44.5402 38.2693 43.9485 38.2703 43.3277Z" fill="white"/>
<path d="M30.3527 27.4488C30.7342 27.5112 31.0766 27.602 31.3964 27.7775C31.7608 27.9773 31.9917 28.2796 32.0941 28.67C32.2171 29.1388 32.1687 29.6379 32.3739 30.0657C32.26 30.1573 32.1929 30.1339 32.1266 30.102C31.5984 29.8482 31.0416 29.8776 30.4743 29.8946C29.7352 29.9167 29.2367 29.4807 28.8625 28.8921C28.7376 28.6956 28.6539 28.4713 28.5642 28.2544C28.4372 27.9475 28.4076 27.6065 28.2141 27.2856C28.9204 27.5964 29.6342 27.3473 30.3527 27.4488ZM31.4161 29.3621C31.62 29.2179 31.7328 29.0154 31.7642 28.7737C31.7924 28.5574 31.746 28.3337 31.5247 28.2612C31.3208 28.1944 31.3155 28.4366 31.238 28.5506C31.0482 28.8293 30.6947 28.9608 30.4106 28.8422C30.1209 28.7213 29.9463 28.3817 30.0065 28.0617C30.0247 27.9652 30.0907 27.8719 30.0224 27.7483C29.8311 27.75 29.5953 27.52 29.4489 27.8341C29.3407 28.0663 29.2961 28.3151 29.3798 28.578C29.6025 29.2771 30.5926 29.6827 31.4161 29.3621Z" fill="white"/>
<path d="M31.6622 27.1123C31.634 27.0476 31.6137 27.0018 31.5812 26.9285C31.4524 27.1591 31.3336 27.2499 31.1266 27.0134C30.9922 26.8599 30.7611 26.985 30.5736 26.9555C30.4463 26.9354 30.2795 26.9262 30.1583 26.9593C29.8522 27.0427 29.7304 26.865 29.5957 26.6615C29.2455 26.1324 28.7777 25.7231 28.2604 25.3648C28.1905 25.3163 28.0793 25.3043 28.0793 25.1665C28.273 25.1104 28.4242 25.2735 28.6281 25.2616C28.5709 25.0299 28.6852 25.0449 28.8531 25.1159C29.2488 25.2834 29.5694 25.5436 29.8466 25.8683C29.9424 25.9805 30.0088 26.1297 30.2127 26.202C30.0052 25.7144 29.5432 25.4961 29.2889 25.0983C29.8333 25.213 30.1759 25.6121 30.5461 25.9802C30.4618 25.6769 30.1822 25.5051 30.0443 25.2166C30.2487 25.1258 30.3529 25.3314 30.5668 25.317C30.5978 25.3099 30.5152 25.186 30.6489 25.1554C31.0113 25.3645 31.313 25.6841 31.5701 26.055C31.5903 26.0391 31.6106 26.0233 31.6309 26.0074C31.4989 25.7864 31.367 25.5654 31.2335 25.3419C31.3682 25.2633 31.4249 25.3588 31.4873 25.4143C32.0822 25.9429 32.3479 26.6441 32.5144 27.3949C32.5341 27.4836 32.5438 27.5908 32.4159 27.6148C32.3081 27.635 32.2439 27.5702 32.2083 27.4737C32.1838 27.4072 32.16 27.3404 32.1308 27.2597C31.9149 27.418 31.7516 27.4031 31.6622 27.1123Z" fill="white"/>
<path d="M28.0903 25.863C27.9021 25.7431 27.7324 25.6353 27.5349 25.5098C27.7092 25.3734 27.8526 25.4269 27.9916 25.4743C28.6317 25.6925 29.0577 26.174 29.46 26.6813C29.5273 26.7662 29.5526 26.8764 29.4413 26.9498C29.3185 27.0308 29.2282 26.95 29.1538 26.8593C28.8477 26.4861 28.5058 26.1514 28.0903 25.863Z" fill="white"/>
</svg>
